<svg version="1.1" xmlns="http://www.w3.org/2000/svg" xmlns:xlink="http://www.w3.org/1999/xlink" width="122.22547" height="133.68669" viewBox="0,0,122.22547,133.68669"><g transform="translate(-178.88726,-108.31558)"><g data-paper-data="{&quot;isPaintingLayer&quot;:true}" fill-rule="nonzero" stroke-linecap="butt" stroke-linejoin="miter" stroke-miterlimit="10" stroke-dasharray="" stroke-dashoffset="0" style="mix-blend-mode: normal"><g><path d="M188.88727,180c0,-28.22878 22.88395,-51.11273 51.11273,-51.11273c28.22879,0 51.11273,22.88395 51.11273,51.11273c0,28.22878 -22.88395,51.11273 -51.11273,51.11273c-28.22878,0 -51.11273,-22.88395 -51.11273,-51.11273z" fill="#ffffff" stroke="#ff0000" stroke-width="20"/><path d="M188.88727,180c0,-28.22878 22.88395,-51.11273 51.11273,-51.11273c28.22879,0 51.11273,22.88395 51.11273,51.11273c0,28.22878 -22.88395,51.11273 -51.11273,51.11273c-28.22878,0 -51.11273,-22.88395 -51.11273,-51.11273z" fill="#ffffff" stroke="#ff4040" stroke-width="12.5"/><path d="M188.88726,180c0,-28.22878 22.88395,-51.11274 51.11274,-51.11274c28.22878,0 51.11274,22.88395 51.11274,51.11274c0,28.22878 -22.88395,51.11274 -51.11274,51.11274c-28.22878,0 -51.11274,-22.88395 -51.11274,-51.11274z" fill="#ffffff" stroke="#ff8080" stroke-width="7.5"/><g fill="#ff0000" stroke-width="1.5" font-family="Sans Serif" font-weight="normal" font-size="40" text-anchor="start"><text transform="translate(207.4477,200.86541) scale(2.11542,2.11542)" font-size="40" xml:space="preserve" fill="#ff0000" fill-rule="nonzero" stroke="#ff8080" stroke-width="1.5" stroke-linecap="butt" stroke-linejoin="miter" stroke-miterlimit="10" stroke-dasharray="" stroke-dashoffset="0" font-family="Sans Serif" font-weight="normal" text-anchor="start" style="mix-blend-mode: normal"><tspan x="0" dy="0">A</tspan></text><text transform="translate(226.01295,215.03061) scale(2.11543,2.11543)" font-size="40" xml:space="preserve" fill="#ff0000" fill-rule="nonzero" stroke="#ff8080" stroke-width="1.5" stroke-linecap="butt" stroke-linejoin="miter" stroke-miterlimit="10" stroke-dasharray="" stroke-dashoffset="0" font-family="Sans Serif" font-weight="normal" text-anchor="start" style="mix-blend-mode: normal"><tspan x="0" dy="0">S</tspan></text></g></g></g></g></svg>